{"title":"YellowBrickRoad.2010.DVDRip.XviD.AC3-SiC","uid":6573512,"size":1626592204,"categoryP":"video","categoryS":"movies","magnet":"?xt=urn:btih:a6fa47c589a414880b9ac57dc62bbf83a84eaa2c&amp;dn=YellowBrickRoad.2010.DVDRip.XviD.AC3-SiC&amp;tr=udp%3A%2F%2Ftracker.openbittorrent.com%3A80&amp;tr=udp%3A%2F%2Fopen.demonii.com%3A1337&amp;tr=udp%3A%2F%2Ftracker.coppersurfer.tk%3A6969&amp;tr=udp%3A%2F%2Fexodus.desync.com%3A6969","seeders":0,"leechers":1,"uploader":"sceneline","files":5,"time":1312079751,"description":"- &lt;a href=&quot;\nhttp://www.Speed.Cd&quot; rel=&quot;nofollow&quot; target=&quot;_NEW&quot;&gt;\nhttp://www.Speed.Cd&lt;/a&gt; \n       &lt;a href=&quot;\nhttp://www.Speed.Cd&quot; rel=&quot;nofollow&quot; target=&quot;_NEW&quot;&gt;\nhttp://www.Speed.Cd&lt;/a&gt;       the fast  and The Hottest Private Tracker on the net\n\n(((--Registration will be open on june every weekend--)))\n\nPlease Seed back to make the speed Faster!!!\n\n------------------nfo--------------------------\n-\n\n\n\n\n\n\n\n\n\n\n\n\n\n\n\n\n\n\n\n\n\n\n\n\n\n\n\n\n\n\n\n\n\n\n\n\n\n\n\n\n          \n          \n              \n              \n                    \n                    \n                    \n                    \n\nYellowBrickRoad.2010.DVDSCR.XviD-SiC\n\nPoster:\n[img]http://leetleech.org/images/34599014723062696298.jpg[/img]\n\nIMDB Link:\nhttp://www.imdb.com/title/tt1398428/\n\nDescription:\n1940: the entire population of Friar, New Hampshire walked up \na winding mountain trail, leaving everything behind. 2008: \nthe first official expedition into the wilderness attempts to solve \nthe mystery of the lost citizens of Friar. \n\nMediainfo:\nGeneral\nComplete name                    : YellowBrickRoad.2010.DVDSCR.XviD-SiC.avi\nFormat                           : AVI\nFormat/Info                      : Audio Video Interleave\nFormat profile                   : OpenDML\nFile size                        : 1.28 GiB\nDuration                         : 1h 40mn\nOverall bit rate                 : 1 821 Kbps\nWriting application              : Lavf52.91.0\n\nVideo\nID                               : 0\nFormat                           : xvid\nCodec ID                         : xvid\nDuration                         : 1h 40mn\nBit rate                         : 381 Kbps\nWidth                            : 640 pixels\nHeight                           : 360 pixels\nDisplay aspect ratio             : 16:9\nFrame rate                       : 29.970 fps\nBits/(Pixel*Frame)               : 0.055\nStream size                      : 274 MiB (21%)\n\nAudio\nID                               : 1\nFormat                           : MPEG Audio\nFormat version                   : Version 1\nFormat profile                   : Layer 3\nMode                             : Joint stereo\nMode extension                   : MS Stereo\nCodec ID                         : 55\nCodec ID/Hint                    : MP3\nDuration                         : 1h 40mn\nBit rate mode                    : Constant\nBit rate                         : 256 Kbps\nChannel(s)                       : 2 channels\nSampling rate                    : 44.1 KHz\nCompression mode                 : Lossy\nStream size                      : 41.3 MiB (3%)\nAlignment                        : Aligned on interleaves\nInterleave, duration             : 31 ms (0.94 video frame)\nWriting library                  : LAME\n\nScreenshots:\n[img]http://leetleech.org/images/18763691877434692449.png[/img]\n[img]http://leetleech.org/images/18457517925399613373.png[/img]\n[img]http://leetleech.org/images/87997410753809917267.png[/img]\n[img]http://leetleech.org/images/36603372453871359251.png[/img]\n[img]http://leetleech.org/images/92444974329085596300.png[/img]\n\nNote: N/A\n\nEncoder: Thefuzz\n\nEnjoy!\n\nRespects to CaptainHomey, Cyanide, CM8, Rx, Pirate666, THC, \nELEKTRI4KA, Killerhz, XtremE, PA and everyone in the struggle...","torrent":{"xt":"urn:btih:a6fa47c589a414880b9ac57dc62bbf83a84eaa2c","amp;dn":"YellowBrickRoad.2010.DVDRip.XviD.AC3-SiC","amp;tr":["udp%3A%2F%2Ftracker.openbittorrent.com%3A80","udp%3A%2F%2Fopen.demonii.com%3A1337","udp%3A%2F%2Ftracker.coppersurfer.tk%3A6969","udp%3A%2F%2Fexodus.desync.com%3A6969"],"infoHash":"a6fa47c589a414880b9ac57dc62bbf83a84eaa2c","infoHashBuffer":{"type":"Buffer","data":[166,250,71,197,137,164,20,136,11,154,197,125,198,43,191,131,168,78,170,44]},"announce":[],"urlList":[]}}